<svg xmlns="http://www.w3.org/2000/svg" viewBox="0 0 512 512" width="512" height="512"><defs><linearGradient id="bg" x1="0" y1="0" x2="1" y2="1"><stop offset="0" stop-color="#3B4BC8"/><stop offset="1" stop-color="#1E2A78"/></linearGradient><linearGradient id="gd" x1="0" y1="0" x2="1" y2="1"><stop offset="0" stop-color="#F7C245"/><stop offset="1" stop-color="#E8940F"/></linearGradient><clipPath id="rr"><rect width="512" height="512" rx="112"/></clipPath></defs><rect width="512" height="512" rx="112" fill="url(#bg)"/><g clip-path="url(#rr)"><line x1="16.4" y1="287.6" x2="16.4" y2="303.7" stroke="#00D68F" stroke-width="7.5" stroke-linecap="round"/><rect x="8.5" y="292.9" width="15.8" height="7.0" rx="2.5" fill="#00D68F"/><line x1="37.2" y1="285.6" x2="37.2" y2="297.2" stroke="#00D68F" stroke-width="7.5" stroke-linecap="round"/><rect x="29.3" y="290.0" width="15.8" height="7.0" rx="2.5" fill="#00D68F"/><line x1="58.1" y1="285.0" x2="58.1" y2="299.9" stroke="#FF3B4E" stroke-width="7.5" stroke-linecap="round"/><rect x="50.2" y="290.0" width="15.8" height="7.0" rx="2.5" fill="#FF3B4E"/><line x1="78.9" y1="286.8" x2="78.9" y2="299.5" stroke="#00D68F" stroke-width="7.5" stroke-linecap="round"/><rect x="71.0" y="291.4" width="15.8" height="7.0" rx="2.5" fill="#00D68F"/><line x1="99.8" y1="248.3" x2="99.8" y2="303.5" stroke="#00D68F" stroke-width="7.5" stroke-linecap="round"/><rect x="91.8" y="261.0" width="15.8" height="30.5" rx="2.5" fill="#00D68F"/><line x1="120.6" y1="192.9" x2="120.6" y2="278.4" stroke="#00D68F" stroke-width="7.5" stroke-linecap="round"/><rect x="112.7" y="211.4" width="15.8" height="49.6" rx="2.5" fill="#00D68F"/><line x1="141.4" y1="147.9" x2="141.4" y2="227.8" stroke="#00D68F" stroke-width="7.5" stroke-linecap="round"/><rect x="133.5" y="165.3" width="15.8" height="46.1" rx="2.5" fill="#00D68F"/><line x1="162.2" y1="140.5" x2="162.2" y2="259.5" stroke="#FF3B4E" stroke-width="7.5" stroke-linecap="round"/><rect x="154.3" y="165.3" width="15.8" height="70.9" rx="2.5" fill="#FF3B4E"/><line x1="183.1" y1="212.4" x2="183.1" y2="325.9" stroke="#FF3B4E" stroke-width="7.5" stroke-linecap="round"/><rect x="175.2" y="236.2" width="15.8" height="67.3" rx="2.5" fill="#FF3B4E"/><line x1="203.9" y1="286.1" x2="203.9" y2="366.0" stroke="#FF3B4E" stroke-width="7.5" stroke-linecap="round"/><rect x="196.0" y="303.5" width="15.8" height="46.1" rx="2.5" fill="#FF3B4E"/><line x1="224.7" y1="304.6" x2="224.7" y2="362.0" stroke="#00D68F" stroke-width="7.5" stroke-linecap="round"/><rect x="216.8" y="317.7" width="15.8" height="31.9" rx="2.5" fill="#00D68F"/><line x1="245.6" y1="274.5" x2="245.6" y2="329.7" stroke="#00D68F" stroke-width="7.5" stroke-linecap="round"/><rect x="237.7" y="287.2" width="15.8" height="30.5" rx="2.5" fill="#00D68F"/><line x1="266.4" y1="282.4" x2="266.4" y2="296.2" stroke="#FF3B4E" stroke-width="7.5" stroke-linecap="round"/><rect x="258.5" y="287.2" width="15.8" height="7.0" rx="2.5" fill="#FF3B4E"/><line x1="287.2" y1="281.4" x2="287.2" y2="296.4" stroke="#00D68F" stroke-width="7.5" stroke-linecap="round"/><rect x="279.3" y="286.5" width="15.8" height="7.0" rx="2.5" fill="#00D68F"/><line x1="308.1" y1="231.3" x2="308.1" y2="301.1" stroke="#00D68F" stroke-width="7.5" stroke-linecap="round"/><rect x="300.2" y="246.8" width="15.8" height="39.7" rx="2.5" fill="#00D68F"/><line x1="328.9" y1="169.5" x2="328.9" y2="266.2" stroke="#00D68F" stroke-width="7.5" stroke-linecap="round"/><rect x="321.0" y="190.1" width="15.8" height="56.7" rx="2.5" fill="#00D68F"/><line x1="349.8" y1="117.4" x2="349.8" y2="208.5" stroke="#00D68F" stroke-width="7.5" stroke-linecap="round"/><rect x="341.8" y="136.9" width="15.8" height="53.2" rx="2.5" fill="#00D68F"/><line x1="370.6" y1="110.0" x2="370.6" y2="240.3" stroke="#FF3B4E" stroke-width="7.5" stroke-linecap="round"/><rect x="362.7" y="136.9" width="15.8" height="78.0" rx="2.5" fill="#FF3B4E"/><line x1="391.4" y1="190.1" x2="391.4" y2="309.2" stroke="#FF3B4E" stroke-width="7.5" stroke-linecap="round"/><rect x="383.5" y="214.9" width="15.8" height="70.9" rx="2.5" fill="#FF3B4E"/><line x1="412.2" y1="267.3" x2="412.2" y2="352.8" stroke="#FF3B4E" stroke-width="7.5" stroke-linecap="round"/><rect x="404.3" y="285.8" width="15.8" height="49.6" rx="2.5" fill="#FF3B4E"/><line x1="433.1" y1="290.4" x2="433.1" y2="347.9" stroke="#00D68F" stroke-width="7.5" stroke-linecap="round"/><rect x="425.2" y="303.5" width="15.8" height="31.9" rx="2.5" fill="#00D68F"/><line x1="453.9" y1="263.1" x2="453.9" y2="315.0" stroke="#00D68F" stroke-width="7.5" stroke-linecap="round"/><rect x="446.0" y="275.1" width="15.8" height="28.3" rx="2.5" fill="#00D68F"/><line x1="474.8" y1="269.7" x2="474.8" y2="286.8" stroke="#FF3B4E" stroke-width="7.5" stroke-linecap="round"/><rect x="466.8" y="275.1" width="15.8" height="7.0" rx="2.5" fill="#FF3B4E"/><line x1="495.6" y1="242.0" x2="495.6" y2="292.8" stroke="#00D68F" stroke-width="7.5" stroke-linecap="round"/><rect x="487.7" y="253.9" width="15.8" height="27.6" rx="2.5" fill="#00D68F"/><rect x="434" y="122" width="42" height="14" rx="7" transform="rotate(45 434 122)" fill="url(#gd)" stroke="#1E2A78" stroke-width="4"/><circle cx="412" cy="100" r="42" fill="none" stroke="url(#gd)" stroke-width="13"/><circle cx="412" cy="100" r="36" fill="#1E2A78" fill-opacity="0.30"/><text x="412" y="115" font-family="Georgia,'Times New Roman',serif" font-size="52" font-weight="700" fill="url(#gd)" text-anchor="middle">₹</text><text x="256" y="474" font-family="Helvetica Neue,Helvetica,Arial,sans-serif" font-size="140" font-weight="900" fill="url(#gd)" text-anchor="middle" letter-spacing="10" stroke="#12204A" stroke-width="8" paint-order="stroke">IPO</text></g></svg>